<?xml version="1.0" encoding="UTF-8"?>
<svg width="30px" height="24px" viewBox="0 0 30 24" version="1.1" xmlns="http://www.w3.org/2000/svg" xmlns:xlink="http://www.w3.org/1999/xlink">
    <title>形状</title>
    <g id="页面-1" stroke="none" stroke-width="1" fill="none" fill-rule="evenodd">
        <g id="相机拍照" transform="translate(0.000000, -0.001962)" fill="#FFFFFF" fill-rule="nonzero">
            <path d="M0,6.51415364 L0,21.0019619 C2.02906125e-16,22.6588161 1.34314575,24.0019619 3,24.0019619 L27,24.0019619 C28.6568542,24.0019619 30,22.6588161 30,21.0019619 L30,6.51415364 C30,4.85729939 28.6568542,3.51415364 27,3.51415364 L22.5099951,3.51415364 C22.1902697,3.51415364 21.8898198,3.36127048 21.7016115,3.10280971 L19.7417156,0.411343923 C19.5535073,0.152883151 19.2530574,-1.63871465e-15 18.933332,0 L11.071469,0 C10.7515249,1.95937517e-15 10.450897,0.153091127 10.2627205,0.411845387 L8.3061071,3.10230825 C8.11793055,3.36106251 7.81730263,3.51415364 7.4973586,3.51415364 L3,3.51415364 C1.34314575,3.51415364 -2.02906125e-16,4.85729939 0,6.51415364 Z M15,21.7580577 C10.5839931,21.7580577 7,18.1740646 7,13.7580577 C7,9.34205085 10.5839931,5.75805775 15,5.75805775 C19.4160069,5.75805775 23,9.34205085 23,13.7580577 C23,18.1740646 19.4160069,21.7580577 15,21.7580577 Z M24.8999817,9.44100298 C24.0749812,9.44100298 23.3999817,8.76600298 23.3999817,7.94100298 C23.3999817,7.11600298 24.0749812,6.44100298 24.8999817,6.44100298 C25.7249799,6.44100298 26.3999817,7.11600298 26.3999817,7.94100298 C26.3999817,8.76600298 25.7249799,9.44100298 24.8999817,9.44100298 Z M15,7.75805775 C11.6999938,7.75805775 9,10.4580515 9,13.7580577 C9,17.058064 11.6999938,19.7580577 15,19.7580577 C18.3000062,19.7580577 21,17.058064 21,13.7580577 C21,10.4580515 18.3000062,7.75805775 15,7.75805775 Z" id="形状"></path>
        </g>
    </g>
</svg>