<?xml version="1.0" encoding="UTF-8"?>
<svg width="125px" height="54px" viewBox="0 0 125 54" version="1.1" xmlns="http://www.w3.org/2000/svg" xmlns:xlink="http://www.w3.org/1999/xlink">
    <title>编组 4</title>
    <defs>
        <linearGradient x1="50%" y1="68.5588941%" x2="40.5944508%" y2="26.9195076%" id="linearGradient-1">
            <stop stop-color="#F2F4F9" stop-opacity="0" offset="0%"></stop>
            <stop stop-color="#E0E5F1" offset="100%"></stop>
        </linearGradient>
        <linearGradient x1="44.9388407%" y1="89.7953557%" x2="44.9388407%" y2="-14.8085695%" id="linearGradient-2">
            <stop stop-color="#F2F4F9" stop-opacity="0" offset="0%"></stop>
            <stop stop-color="#E0E5F1" offset="100%"></stop>
        </linearGradient>
    </defs>
    <g id="页面-1" stroke="none" stroke-width="1" fill="none" fill-rule="evenodd">
        <g id="编组-4" transform="translate(0.000000, 0.414786)">
            <path d="M60.0623428,31.0217774 C60.0623428,30.9993885 60.0631532,30.977203 60.0631532,30.9548141 C60.0631532,18.8045305 50.2583093,8.95481409 38.163379,8.95481409 C29.1957143,8.95481409 21.4882759,14.3704993 18.1016711,22.1229811 C17.2426101,21.9743998 16.3598439,21.8960385 15.4586403,21.8960385 C6.92111397,21.8960385 -2.84217094e-14,28.8488274 -2.84217094e-14,37.4254263 C-2.84217094e-14,46.0020252 6.92111397,52.9548141 15.4586403,52.9548141 L61.2709038,52.9548141 C67.318369,52.9548141 72.2206897,48.0298541 72.2206897,41.9547123 C72.2206897,35.8795705 67.318369,30.9548141 61.2709038,30.9548141 C60.8624447,30.9548141 60.4592533,30.9780172 60.0623428,31.0217774 Z" id="Fill-5" fill="url(#linearGradient-1)"></path>
            <path d="M116.919024,14.5441349 C116.919024,14.5293786 116.919558,14.5147564 116.919558,14.5 C116.919558,6.49185856 110.457275,0 102.485616,0 C96.5751099,0 91.4952073,3.5694289 89.2631269,8.67901914 C88.6969276,8.58109058 88.1151044,8.52944333 87.5211293,8.52944333 C81.8941233,8.52944333 77.33248,13.1119633 77.33248,18.7647217 C77.33248,24.41748 81.8941233,29 87.5211293,29 L117.715576,29 C121.701405,29 124.93248,25.7540036 124.93248,21.7499329 C124.93248,17.7458622 121.701405,14.5 117.715576,14.5 C117.446364,14.5 117.180624,14.515293 116.919024,14.5441349 Z" id="Fill-5备份" fill="url(#linearGradient-2)" transform="translate(101.132480, 14.500000) scale(-1, 1) translate(-101.132480, -14.500000) "></path>
        </g>
    </g>
</svg>