<?xml version="1.0" encoding="UTF-8"?>
<svg width="87px" height="58px" viewBox="0 0 87 58" version="1.1" xmlns="http://www.w3.org/2000/svg" xmlns:xlink="http://www.w3.org/1999/xlink">
    <title>”</title>
    <g id="页面-1" stroke="none" stroke-width="1" fill="none" fill-rule="evenodd" opacity="0.08">
        <g id="拍照查询顶部图" transform="translate(-276.000000, -85.000000)" fill="#355DEE" fill-rule="nonzero">
            <g id="5.反馈/1.Alert警告提示/2.大/1.成功" transform="translate(12.000000, 85.000000)">
                <g id="编组-3" transform="translate(264.000000, -11.460000)">
                    <path d="M5.66,69.42 C25.42,60.06 37.64,42.64 37.64,23.66 C37.64,9.62 29.58,2.84217094e-14 17.88,2.84217094e-14 C8,2.84217094e-14 0.2,7.28 0.2,16.9 C0.2,24.18 4.88,30.16 11.9,31.98 C19.96,33.8 20.22,34.06 20.22,38.22 C20.22,47.32 13.46,55.64 0.46,63.18 L5.66,69.42 Z M56.62,69.42 C76.38,60.06 88.6,42.64 88.6,23.66 C88.6,9.62 80.54,2.84217094e-14 68.84,2.84217094e-14 C58.96,2.84217094e-14 51.16,7.28 51.16,16.9 C51.16,24.18 55.84,30.16 62.86,31.98 C70.92,33.8 71.18,34.06 71.18,38.22 C71.18,47.32 64.42,55.64 51.42,63.18 L56.62,69.42 Z" id="”"></path>
                </g>
            </g>
        </g>
    </g>
</svg>