<svg t="1627872874813" class="icon" viewBox="0 0 1024 1024" version="1.1" xmlns="http://www.w3.org/2000/svg" p-id="2486" width="32" height="32"><path d="M984.405333 934.684444l-173.511111-155.496296a414.151111 414.151111 0 0 0 115.90163-287.326815C926.795852 262.447407 740.200296 75.851852 510.862222 75.851852 281.41037 75.851852 94.814815 262.447407 94.814815 491.861333c0 229.338074 186.595556 416.009481 416.009481 416.009482 95.725037 0 183.789037-32.881778 254.179556-87.457185l175.862518 157.847703a30.72 30.72 0 0 0 43.538963 0 30.795852 30.795852 0 0 0 0-43.576889z" fill="#355DEE" p-id="2487"></path><path d="M743.348148 305.531259v47.862519c-76.648296 7.054222-136.533333 66.863407-136.533333 139.643259s59.885037 132.589037 136.533333 139.643259v47.862519C633.856 666.81363 549.925926 588.117333 549.925926 493.037037s83.930074-173.776593 193.422222-187.505778z" fill="#FFFFFF" p-id="2488"></path><path d="M606.814815 305.531259v47.862519c-76.648296 7.054222-136.533333 66.863407-136.533334 139.643259s59.885037 132.589037 136.533334 139.643259v47.862519c-109.492148-13.729185-193.422222-92.425481-193.422222-187.505778s83.930074-173.776593 193.422222-187.505778z" fill="#FFFFFF" p-id="2489"></path><path d="M470.281481 305.531259v47.862519C393.633185 360.448 333.748148 420.257185 333.748148 493.037037s59.885037 132.589037 136.533333 139.643259v47.862519C360.789333 666.81363 276.859259 588.117333 276.859259 493.037037s83.930074-173.776593 193.422222-187.505778z" fill="#FFFFFF" p-id="2490"></path></svg>