<svg t="1627872846880" class="icon" viewBox="0 0 1024 1024" version="1.1" xmlns="http://www.w3.org/2000/svg" p-id="2285" width="32" height="32"><path d="M510.824296 75.851852c229.338074 0 415.971556 186.595556 415.971556 416.009481a414.151111 414.151111 0 0 1-115.90163 287.326815l173.511111 155.496296a30.795852 30.795852 0 1 1-43.538963 43.576889l-175.862518-157.847703a413.582222 413.582222 0 0 1-254.179556 87.457185C281.41037 907.870815 94.814815 721.199407 94.814815 491.823407 94.814815 262.447407 281.41037 75.851852 510.824296 75.851852zM512 132.740741a360.296296 360.296296 0 1 0 0 720.592592 360.296296 360.296296 0 0 0 0-720.592592z" fill="#999999" p-id="2286"></path><path d="M743.348148 305.531259v47.862519c-76.648296 7.054222-136.533333 66.863407-136.533333 139.643259s59.885037 132.589037 136.533333 139.643259v47.862519C633.856 666.81363 549.925926 588.117333 549.925926 493.037037s83.930074-173.776593 193.422222-187.505778z" fill="#999999" p-id="2287"></path><path d="M606.814815 305.531259v47.862519c-76.648296 7.054222-136.533333 66.863407-136.533334 139.643259s59.885037 132.589037 136.533334 139.643259v47.862519c-109.492148-13.729185-193.422222-92.425481-193.422222-187.505778s83.930074-173.776593 193.422222-187.505778z" fill="#999999" p-id="2288"></path><path d="M470.281481 305.531259v47.862519C393.633185 360.448 333.748148 420.257185 333.748148 493.037037s59.885037 132.589037 136.533333 139.643259v47.862519C360.789333 666.81363 276.859259 588.117333 276.859259 493.037037s83.930074-173.776593 193.422222-187.505778z" fill="#999999" p-id="2289"></path></svg>